<?xml version="1.0" encoding="utf-8"?>
<svg xmlns="http://www.w3.org/2000/svg" viewBox="0 0 16 16" enable-background="new 0 0 16 16">
  <style type="text/css">.icon-canvas-transparent{opacity:0;fill:#F6F6F6;} .icon-vs-out{fill:#F6F6F6;} .icon-vs-bg{fill:#424242;} .icon-vs-fg{fill:#F0EFF1;}</style>
  <path class="icon-canvas-transparent" d="M16 16h-16v-16h16v16z" id="canvas"/>
  <path class="icon-vs-out" d="M16 0h-15v8.031c-.62.833-1 1.853-1 2.969 0 1.116.38 2.136 1 2.969v.031h.026c.913 1.207 2.347 2 3.974 2s3.061-.793 3.974-2h7.026v-14z" id="outline"/>
  <path class="icon-vs-bg" d="M2 1v6.026c.838-.635 1.87-1.026 3-1.026h-2v-2h3v2h-1c1.116 0 2.136.38 2.969 1h2.031v2h-.424c.14.318.252.651.323 1h.101v2h-.101c-.071.349-.183.682-.323 1h5.424v-12h-13zm8 5h-3v-2h3v2zm4 6h-3v-2h3v2zm0-3h-3v-2h3v2zm0-3h-3v-2h3v2zm-9 1c-2.209 0-4 1.791-4 4s1.791 4 4 4 4-1.791 4-4-1.791-4-4-4zm0 7c-1.655 0-3-1.345-3-3s1.345-3 3-3 3 1.345 3 3-1.345 3-3 3zm2-3v1h-3v-3h1v2h2z" id="iconBg"/>
  <g id="iconFg">
    <path class="icon-vs-fg" d="M9.899 10h.101v1c0-.342-.035-.677-.101-1zm.101 2v-1c0 .342-.035.677-.101 1h.101zm-.424-3h.424v-2h-2.031c.694.517 1.255 1.199 1.607 2zm-3.576-3v-2h-3v2h3zm5-2v2h3v-2h-3zm0 5h3v-2h-3v2zm0 3h3v-2h-3v2zm-4-6h3v-2h-3v2zm-2 2c-1.655 0-3 1.345-3 3s1.345 3 3 3 3-1.345 3-3-1.345-3-3-3zm2 4h-3v-3h1v2h2v1z"/>
  </g>
  <g id="group-1" transform="matrix(0.63047, 0, 0, 0.633712, -0.220421, 6.171798)" style="">
    <path class="st0" d="M0 0h16v16H0z" style="fill: rgb(246, 246, 246); opacity: 0;"/>
    <path class="st1" d="M16 7.5c0 4.143-3.357 7.5-7.5 7.5A7.499 7.499 0 0 1 1 7.5C1 3.357 4.357 0 8.5 0S16 3.357 16 7.5z" style="fill: rgb(246, 246, 246);"/>
  </g>
  <path class="st2" d="M 5.139 6.805 C 1.984 6.805 0.012 10.238 1.59 12.984 C 2.322 14.259 3.675 15.044 5.139 15.044 C 8.294 15.044 10.265 11.612 8.688 8.865 C 7.956 7.59 6.603 6.805 5.139 6.805 Z M 4.193 11.241 C 3.221 11.241 2.615 10.185 3.101 9.339 C 3.327 8.947 3.743 8.706 4.193 8.706 C 5.165 8.706 5.771 9.763 5.285 10.607 C 5.06 11 4.643 11.241 4.193 11.241 Z" id="icon_x5F_bg" style="fill: rgb(66, 66, 66); stroke-width: 1;"/>
  <path class="st3" d="M 5.454 9.973 C 5.453 10.95 4.402 11.559 3.562 11.071 C 3.172 10.845 2.931 10.426 2.931 9.973 C 2.931 8.997 3.983 8.387 4.823 8.876 C 5.213 9.103 5.454 9.521 5.454 9.973 Z" id="icon_x5F_fg" style="fill: rgb(240, 239, 241); stroke-width: 1;"/>
</svg>