<?xml version="1.0" encoding="utf-8"?>
<svg xmlns="http://www.w3.org/2000/svg" viewBox="0 0 16 16">
  <style>.icon-canvas-transparent{opacity:0;fill:#f6f6f6}.icon-vs-out{fill:#f6f6f6}.icon-vs-bg{fill:#424242}.icon-vs-fg{fill:#f0eff1}.icon-vs-action-orange{fill:#c27d1a}</style>
  <g id="canvas">
    <path id="XMLID_1_" class="icon-canvas-transparent" d="M16 16H0V0h16v16z"/>
  </g>
  <g id="outline">
    <path id="XMLID_3_" class="icon-vs-out" d="M16 14H9.981L7.98 16h-.783l-2.002-2H0V0h16v14z"/>
  </g>
  <g id="iconBg">
    <path id="XMLID_5_" class="icon-vs-bg" d="M3 12.041l-.182.182L2.595 12H2v-.592l-1-.996V13h2v-.959zM1 1v6.588l1-1V4h12v8h-3.946l.965.963-.038.037H15V1H1z"/>
    <path id="XMLID_7_" class="icon-vs-action-orange" d="M9.604 12.964l-2.015 2.013-1.388-1.385.595-.592H4V9.637l-1.182 1.174L1 9.001 4.001 6l1.812 1.813L4.628 9h2.901l.682-.684L9.6 9.7l-2.015 2.015-1.388-1.385.332-.33H5v2h2.795l.42-.422z"/>
  </g>
  <g id="iconFg">
    <path id="XMLID_10_" class="icon-vs-fg" d="M14 4v8h-3.946l-.671-.669 1.632-1.632-2.806-2.798-.944.948-3.263-3.263L2 6.588V4h12zM2 11.408V12h.595L2 11.408z"/>
  </g>
  <path class="st0" d="M 14.004 11.993 L -1.996 11.993 L -1.996 -4.007 L 14.004 -4.007 L 14.004 11.993 Z" id="path-1" style="fill: rgb(246, 246, 246); opacity: 0; stroke-width: 1;"/>
  <path class="icon-vs-out" d="M 6.107 4.03 L 7.144 2.993 L 3.004 2.993 L 3.004 6.993 L 0.004 6.993 L 0.004 2.493 C 0.004 1.115 1.126 -0.007 2.504 -0.007 L 8.504 -0.007 C 9.741 -0.007 10.772 0.897 10.97 2.078 L 12.917 4.025 L 9.921 6.993 L 9.099 6.993 L 6.107 4.03 Z" id="path-2" style="stroke-width: 1;"/>
  <path class="icon-vs-action-blue" d="M 11.499 4.022 L 9.51 5.993 L 7.525 4.026 L 8.232 3.319 L 9.004 4.091 L 9.004 2.493 C 9.004 2.218 8.779 1.993 8.504 1.993 L 2.504 1.993 C 2.229 1.993 2.004 2.218 2.004 2.493 L 2.004 5.993 L 1.004 5.993 L 1.004 2.493 C 1.004 1.665 1.677 0.993 2.504 0.993 L 8.504 0.993 C 9.331 0.993 10.004 1.665 10.004 2.493 L 10.004 3.014 L 10.005 3.014 L 10.004 3.687 L 10.004 4.104 L 10.792 3.316 L 11.499 4.022 Z" id="path-3" style="fill: rgb(0, 83, 156); stroke-width: 1;"/>
</svg>