<?xml version="1.0" encoding="utf-8"?>
<svg width="16" height="16" viewBox="0 0 16 16" xmlns="http://www.w3.org/2000/svg">
  <rect width="16" height="16" rx="3" fill="#2a5c82"/>
  <rect x="3" y="2.959" width="10" height="10.041" rx="1" fill="#ffffff" style=""/>
  <path class="icon-canvas-transparent" d="M 13.005 12.101 L 2.993 12.101 L 2.993 2.96 L 13.005 2.96 L 13.005 12.101 Z" id="canvas" style="fill: rgb(246, 246, 246); opacity: 0; stroke-width: 1;"/>
  <path class="icon-vs-out" d="M 13.005 6.959 L 13.005 4.138 L 11.988 2.96 L 9.25 2.96 C 8.643 2.96 7.999 3.36 7.999 4.102 L 7.999 5.817 L 2.993 5.817 L 2.993 12.101 L 10.502 12.101 L 10.502 11.53 L 10.815 11.53 C 11.506 11.53 12.093 11.119 12.3 10.551 L 13.005 11.194 L 13.005 8.722 L 12.234 8.018 C 12.735 7.84 13.005 7.39 13.005 6.959 Z" id="outline" style="fill: rgb(246, 246, 246); stroke-width: 1;"/>
  <path class="icon-vs-bg" d="M 11.324 3.532 L 9.226 3.532 C 9.226 3.532 8.624 3.532 8.624 4.102 L 8.624 6.959 C 8.624 7.53 9.227 7.53 9.227 7.53 L 11.73 7.53 C 12.357 7.53 12.379 6.959 12.379 6.959 L 12.379 4.751 L 11.324 3.532 Z M 11.753 5.817 L 11.753 6.959 L 9.251 6.959 L 9.251 4.102 L 11.128 4.102 L 11.128 4.674 L 11.753 4.674 L 11.753 5.817 Z M 9.251 8.101 L 9.251 8.673 L 7.999 8.673 L 7.999 8.101 L 9.251 8.101 C 8.643 8.101 7.999 7.701 7.999 6.959 L 7.999 6.388 L 3.618 6.388 L 3.618 11.53 L 9.251 11.53 L 9.251 10.959 L 7.999 10.959 L 7.999 10.387 L 9.251 10.387 L 9.251 9.815 L 7.999 9.815 L 7.999 9.245 L 9.251 9.245 L 9.251 9.815 L 9.877 9.815 L 9.877 8.101 L 9.251 8.101 Z M 5.495 10.959 L 4.244 10.959 L 4.244 10.387 L 5.495 10.387 L 5.495 10.959 Z M 5.495 9.815 L 4.244 9.815 L 4.244 9.245 L 5.495 9.245 L 5.495 9.815 Z M 5.495 8.673 L 4.244 8.673 L 4.244 8.101 L 5.495 8.101 L 5.495 8.673 Z M 7.374 10.959 L 6.121 10.959 L 6.121 10.387 L 7.374 10.387 L 7.374 10.959 Z M 7.374 9.815 L 6.121 9.815 L 6.121 9.245 L 7.374 9.245 L 7.374 9.815 Z M 7.374 8.673 L 6.122 8.673 L 6.121 8.101 L 7.374 8.101 L 7.374 8.673 Z M 11.44 8.101 L 12.379 8.958 L 12.379 9.815 L 11.753 9.245 L 11.753 10.101 C 11.753 10.574 11.331 10.959 10.815 10.959 L 9.877 10.959 L 9.877 10.387 L 10.815 10.387 C 10.988 10.387 11.128 10.259 11.128 10.101 L 11.128 9.245 L 10.502 9.815 L 10.502 8.958 L 11.44 8.101 Z M 11.122 5.268 L 9.873 5.268 L 9.873 4.671 L 11.122 4.671 L 11.122 5.268 Z M 11.128 5.817 L 9.877 5.817 L 9.877 6.388 L 11.128 6.388 L 11.128 5.817 Z" id="iconBg" style="fill: rgb(42, 92, 130); stroke-width: 1;"/>
  <path class="icon-vs-fg" d="M 5.495 10.387 L 4.244 10.387 L 4.244 10.959 L 5.495 10.959 L 5.495 10.387 Z M 5.495 9.245 L 4.244 9.245 L 4.244 9.815 L 5.495 9.815 L 5.495 9.245 Z M 5.495 8.101 L 4.244 8.101 L 4.244 8.673 L 5.495 8.673 L 5.495 8.101 Z M 7.374 10.387 L 6.121 10.387 L 6.121 10.959 L 7.374 10.959 L 7.374 10.387 Z M 7.374 9.245 L 6.121 9.245 L 6.121 9.815 L 7.374 9.815 L 7.374 9.245 Z M 7.374 8.101 L 6.121 8.101 L 6.122 8.673 L 7.374 8.673 L 7.374 8.101 Z M 9.251 10.387 L 7.999 10.387 L 7.999 10.959 L 9.251 10.959 L 9.251 10.387 Z M 9.251 9.245 L 7.999 9.245 L 7.999 9.815 L 9.251 9.815 L 9.251 9.245 Z M 9.251 8.101 L 7.999 8.101 L 7.999 8.673 L 9.251 8.673 L 9.251 8.101 Z M 11.128 4.674 L 11.128 4.102 L 9.251 4.102 L 9.251 6.959 L 11.753 6.959 L 11.753 4.674 L 11.128 4.674 Z M 9.873 4.671 L 11.123 4.671 L 11.123 5.268 L 9.873 5.268 L 9.873 4.671 Z M 11.128 6.388 L 9.877 6.388 L 9.877 5.817 L 11.128 5.817 L 11.128 6.388 Z" id="iconFg" style="fill: rgb(240, 239, 241); stroke-width: 1;"/>
</svg>