<?xml version="1.0" encoding="utf-8"?>
<svg xmlns="http://www.w3.org/2000/svg" viewBox="0 0 16 16">
  <style>.icon-canvas-transparent{opacity:0;fill:#f6f6f6}.icon-vs-out{fill:#f6f6f6}.icon-vs-bg{fill:#424242}.icon-vs-fg{fill:#f0eff1}</style>
  <path class="icon-canvas-transparent" d="M16 16H0V0h16v16z" id="canvas"/>
  <path class="icon-vs-out" d="M16 3c0 1.654-1.346 3-3 3v7c0 1.654-1.346 3-3 3H3c-.801 0-1.554-.313-2.121-.879S0 13.801 0 13s.312-1.555.879-2.121A2.989 2.989 0 0 1 2 10.17V3c0-1.654 1.346-3 3-3h8c1.654 0 3 1.346 3 3z" id="outline"/>
  <path class="icon-vs-fg" d="M14 3c0 .551-.449 1-1 1h-1V3c0-.551.449-1 1-1s1 .449 1 1zm-5.733 9H3a.993.993 0 0 0-.707.293c-.189.189-.293.44-.293.707s.104.518.293.707c.189.189.44.293.707.293h5.277a1.98 1.98 0 0 1-.01-2zM4 3v8h6a.5.5 0 0 1 0 1 .993.993 0 0 0-.707.293c-.189.189-.293.44-.293.707s.104.518.293.707A1.001 1.001 0 0 0 11 13V3c0-.366.106-.705.278-1H5c-.551 0-1 .449-1 1z" id="iconFg"/>
  <path class="icon-vs-bg" d="M13 1H5c-1.103 0-2 .897-2 2v8c-.534 0-1.036.208-1.414.586S1 12.466 1 13s.208 1.036.586 1.414S2.466 15 3 15h7c1.103 0 2-.897 2-2V5h1c1.103 0 2-.897 2-2s-.897-2-2-2zM3 14a.993.993 0 0 1-.707-.293C2.104 13.518 2 13.267 2 13s.104-.518.293-.707A.993.993 0 0 1 3 12h5.267a1.98 1.98 0 0 0 .01 2H3zm8-11v10a1.001 1.001 0 0 1-2 0c0-.267.104-.518.293-.707A.993.993 0 0 1 10 12a.5.5 0 0 0 0-1H4V3c0-.551.449-1 1-1h6.278A1.978 1.978 0 0 0 11 3zm2 1h-1V3c0-.551.449-1 1-1s1 .449 1 1-.449 1-1 1z" id="iconBg"/>
  <title>Diff_16x</title>
  <g id="group-1" transform="matrix(0.466199, 0, 0, 0.562774, 3.996487, 1.994733)" style="">
    <path class="icon-canvas-transparent" d="M16,0V16H0V0Z"/>
  </g>
  <g id="group-2" transform="matrix(0.466199, 0, 0, 0.561018, 3.996487, 2.022828)" style="">
    <path class="icon-vs-out" d="M6,16V15H0V2H6V0H9V2h6V15H9v1Z"/>
  </g>
  <g id="group-3" transform="matrix(0.466199, 0, 0, 0.562774, 3.996487, 1.994733)" style="">
    <path class="icon-vs-red" d="M6,4V7H2V4ZM2,10H6V9H2Zm0,3H6V12H2Z" style="fill: rgb(229, 20, 0);"/>
    <path class="icon-vs-green" d="M9,10h4v2H9ZM9,7V9h4V7Z" style="fill: rgb(51, 153, 51);"/>
  </g>
  <g id="group-4" transform="matrix(0.466199, 0, 0, 0.562774, 3.996487, 1.994733)" style="">
    <path class="icon-vs-bg" d="M7,1H8V15H7ZM1,14H6V13H2V4H6V3H1ZM9,3V4h4v9H9v1h5V3Z"/>
  </g>
</svg>