<svg width="94" height="94" xmlns="http://www.w3.org/2000/svg" version="1.0">

 <g>
  <title>Layer 1</title>
  <g stroke="null" id="svg_7">
   <path stroke="null" id="svg_1" fill="#809cc9" d="m85.92964,1.875l-79.11818,0l0,78.762l79.11892,0l0,-78.762l-0.00073,0z"/>
   <path stroke="null" id="svg_2" fill="#fff" d="m86.6141,1l1.21796,6.583c-11.20126,2.216 -21.16844,4.828 -29.9008,7.837c-9.42195,3.247 -17.00012,6.546 -22.73595,9.896c-5.74829,3.284 -8.43264,5.952 -8.05377,8c0.33417,1.807 2.73711,2.626 7.22787,2.453c2.30181,-0.058 6.04729,-0.399 11.2379,-1.028c5.19061,-0.626 11.88718,-1.536 20.09045,-2.726c15.0955,-2.144 25.47453,-3.077 31.13854,-2.8c5.65083,0.21 8.75288,1.784 9.29811,4.725c0.73796,3.988 -4.61974,9.331 -16.07163,16.026c-11.47387,6.633 -26.29383,13.076 -44.44741,19.332c-15.28237,5.265 -28.45786,9.029 -39.52795,11.291l-1.2055,-6.51c13.09415,-2.555 24.86994,-5.633 35.32592,-9.236c9.76565,-3.364 17.29032,-6.629 22.57107,-9.799c5.28002,-3.169 7.71886,-5.84 7.31581,-8.019c-0.34956,-1.886 -2.78841,-2.849 -7.30848,-2.891c-2.315,0.034 -5.50353,0.257 -9.57218,0.668c-4.07891,0.414 -9.14495,1.056 -15.1981,1.923c-9.39044,1.375 -17.19358,2.415 -23.39916,3.121c-6.21437,0.709 -10.84657,1.051 -13.90612,1.03c-5.86994,-0.074 -9.07972,-1.62 -9.63667,-4.628c-0.75041,-4.061 4.20643,-9.195 14.87272,-15.403c10.77768,-6.268 25.37779,-12.576 43.81938,-18.93c12.75412,-4.394 25.0363,-8.032 36.848,-10.915z"/>
   <path stroke="null" id="svg_3" fill="#fff" d="m10.2191,57.078c0.20446,0 0.3818,0.105 0.5335,0.316c0.15023,0.205 0.22644,0.451 0.22644,0.736c0,0.297 -0.07621,0.548 -0.22644,0.754c-0.15096,0.205 -0.3327,0.308 -0.54596,0.308c-0.21765,0 -0.40159,-0.103 -0.55182,-0.309c-0.15096,-0.211 -0.22644,-0.462 -0.22644,-0.753c0,-0.297 0.07548,-0.545 0.22644,-0.745c0.15389,-0.204 0.34223,-0.307 0.56428,-0.307zm0,6.803c0.20446,0 0.3818,0.107 0.5335,0.318c0.15023,0.207 0.22644,0.456 0.22644,0.748s-0.07621,0.541 -0.22644,0.748c-0.15902,0.201 -0.34076,0.301 -0.54596,0.301c-0.10846,0 -0.21032,-0.027 -0.30412,-0.082a0.78786,1.0751 0 0 1 -0.2477,-0.223a0.73671,1.0053 0 0 1 -0.16708,-0.336c-0.04031,-0.129 -0.05936,-0.268 -0.05936,-0.417c0,-0.292 0.07548,-0.542 0.22644,-0.748c0.15389,-0.206 0.34223,-0.309 0.56428,-0.309zm2.67775,-6.803c0.20519,0 0.38254,0.105 0.5335,0.316c0.15096,0.205 0.22644,0.451 0.22644,0.736c0,0.297 -0.07548,0.548 -0.22644,0.754c-0.15023,0.205 -0.33197,0.308 -0.54522,0.308c-0.21765,0 -0.40232,-0.103 -0.55255,-0.309c-0.15096,-0.211 -0.22644,-0.462 -0.22644,-0.753c0,-0.297 0.07548,-0.545 0.22644,-0.745c0.15463,-0.204 0.34296,-0.307 0.56428,-0.307zm0,6.803c0.20519,0 0.38254,0.107 0.5335,0.318c0.15096,0.207 0.22644,0.456 0.22644,0.748s-0.07548,0.541 -0.22644,0.748c-0.15902,0.201 -0.34076,0.301 -0.54522,0.301c-0.10846,0 -0.21032,-0.027 -0.30486,-0.082a0.78786,1.0751 0 0 1 -0.2477,-0.223a0.73481,1.0027 0 0 1 -0.16635,-0.336c-0.04031,-0.129 -0.06009,-0.268 -0.06009,-0.417c0,-0.292 0.07548,-0.542 0.22644,-0.748c0.15463,-0.206 0.34296,-0.309 0.56428,-0.309z"/>
   <path stroke="null" id="svg_4" fill="#809cc9" d="m11.3821,88.417c0,0.433 -0.08134,0.822 -0.24476,1.167c-0.16342,0.345 -0.40232,0.615 -0.71744,0.811c-0.31438,0.195 -0.68739,0.293 -1.11756,0.293c-0.51738,0 -0.94388,-0.134 -1.27952,-0.4c-0.2389,-0.191 -0.4331,-0.448 -0.58186,-0.769c-0.1495,-0.321 -0.22425,-0.633 -0.22425,-0.936c0,-0.176 0.0447,-0.326 0.13484,-0.452c0.08867,-0.125 0.20299,-0.188 0.3415,-0.188c0.11212,0 0.20666,0.049 0.28507,0.146c0.07841,0.097 0.14363,0.243 0.1986,0.436c0.06669,0.228 0.1385,0.418 0.21692,0.571c0.07695,0.153 0.18614,0.279 0.32757,0.379c0.13997,0.1 0.32538,0.149 0.55548,0.149c0.31512,0 0.57087,-0.101 0.768,-0.301c0.19713,-0.2 0.29533,-0.451 0.29533,-0.75c0,-0.238 -0.05276,-0.432 -0.15976,-0.58c-0.10626,-0.147 -0.2433,-0.261 -0.41185,-0.339c-0.16855,-0.078 -0.39353,-0.161 -0.67567,-0.249c-0.37741,-0.121 -0.69252,-0.262 -0.94755,-0.424c-0.25429,-0.16 -0.45582,-0.381 -0.60458,-0.659c-0.1495,-0.278 -0.22425,-0.625 -0.22425,-1.038c0,-0.395 0.07841,-0.745 0.23597,-1.051c0.15756,-0.307 0.38473,-0.542 0.68299,-0.707c0.29826,-0.164 0.64855,-0.246 1.05234,-0.246c0.32098,0 0.59945,0.055 0.83469,0.163c0.2345,0.109 0.43017,0.255 0.5848,0.435c0.15536,0.182 0.26821,0.371 0.34003,0.57c0.07182,0.198 0.10699,0.393 0.10699,0.581c0,0.173 -0.0447,0.328 -0.13337,0.467c-0.0894,0.139 -0.20006,0.208 -0.33344,0.208c-0.12092,0 -0.21325,-0.042 -0.27554,-0.125c-0.06302,-0.083 -0.13118,-0.219 -0.20446,-0.408c-0.096,-0.271 -0.21032,-0.481 -0.34443,-0.633c-0.13411,-0.152 -0.34883,-0.227 -0.64489,-0.227c-0.27408,0 -0.49612,0.082 -0.66394,0.246c-0.16782,0.165 -0.25283,0.363 -0.25283,0.594c0,0.144 0.02858,0.268 0.08574,0.372c0.05716,0.104 0.13631,0.193 0.23597,0.269c0.09966,0.076 0.20153,0.134 0.30486,0.176c0.10333,0.043 0.27188,0.104 0.50858,0.186c0.2946,0.095 0.56208,0.199 0.80098,0.313c0.2389,0.114 0.44263,0.252 0.60971,0.415c0.16782,0.163 0.29899,0.369 0.3928,0.618c0.0938,0.249 0.14217,0.556 0.14217,0.917zm4.21522,-0.813l0,-3.444c0,-0.293 0.04837,-0.513 0.1451,-0.659c0.09673,-0.146 0.22425,-0.22 0.3818,-0.22c0.16562,0 0.29606,0.073 0.3928,0.22c0.09673,0.147 0.1451,0.367 0.1451,0.661l0,3.529c0,0.401 0.03298,0.736 0.0982,1.006c0.06522,0.27 0.18101,0.479 0.34809,0.627c0.16635,0.148 0.39939,0.223 0.69912,0.223c0.41331,0 0.70571,-0.151 0.87646,-0.453c0.17075,-0.302 0.25722,-0.76 0.25722,-1.373l0,-3.559c0,-0.297 0.04763,-0.519 0.1429,-0.664c0.096,-0.145 0.22351,-0.217 0.38327,-0.217c0.15976,0 0.2902,0.072 0.38913,0.217c0.09893,0.146 0.14876,0.366 0.14876,0.663l0,3.448c0,0.561 -0.04031,1.028 -0.12018,1.403c-0.07988,0.375 -0.23084,0.705 -0.45362,0.989c-0.19053,0.238 -0.41185,0.412 -0.66394,0.521c-0.25356,0.109 -0.54815,0.165 -0.88672,0.165c-0.40305,0 -0.74895,-0.061 -1.03988,-0.179c-0.2902,-0.119 -0.52837,-0.303 -0.71157,-0.552c-0.18321,-0.249 -0.31805,-0.568 -0.40379,-0.958c-0.08574,-0.388 -0.12824,-0.853 -0.12824,-1.394zm11.0928,2.958l-1.60489,0c-0.23157,0 -0.39719,-0.071 -0.49612,-0.213c-0.09966,-0.142 -0.14876,-0.367 -0.14876,-0.676l0,-5.38c0,-0.315 0.05057,-0.542 0.15243,-0.681c0.10113,-0.139 0.26528,-0.207 0.49246,-0.207l1.70236,0c0.25063,0 0.46828,0.021 0.65222,0.062c0.18394,0.041 0.34883,0.123 0.49466,0.242c0.12385,0.101 0.23304,0.229 0.32831,0.383s0.16782,0.325 0.21838,0.512c0.04983,0.188 0.07548,0.385 0.07548,0.593c0,0.716 -0.26162,1.239 -0.78632,1.571c0.68812,0.3 1.03329,0.884 1.03329,1.751c0,0.401 -0.07548,0.763 -0.22571,1.083c-0.15023,0.321 -0.35249,0.559 -0.60751,0.712c-0.16049,0.091 -0.34443,0.154 -0.55255,0.191c-0.20812,0.039 -0.45069,0.057 -0.7277,0.057zm-1.18571,-6.078l0,1.859l0.97466,0c0.26455,0 0.46974,-0.035 0.61411,-0.104c0.14437,-0.069 0.25502,-0.199 0.33197,-0.393c0.05936,-0.137 0.0894,-0.291 0.0894,-0.461c0,-0.363 -0.09453,-0.604 -0.2836,-0.724c-0.18834,-0.119 -0.47634,-0.179 -0.86327,-0.179l-0.86327,0l0,0.002zm1.1073,2.891l-1.1073,0l0,2.109l1.14321,0c0.7189,0 1.07872,-0.357 1.07872,-1.07c0,-0.364 -0.09307,-0.629 -0.27921,-0.793c-0.18687,-0.164 -0.46535,-0.246 -0.83542,-0.246z"/>
   <path stroke="null" id="svg_5" fill="#999" d="m33.79414,84.232l1.18571,4.799l1.19011,-4.833c0.06229,-0.254 0.10773,-0.431 0.13924,-0.529c0.03078,-0.099 0.08134,-0.188 0.15316,-0.269c0.07182,-0.081 0.16928,-0.119 0.29313,-0.119c0.09014,0 0.17441,0.03 0.25209,0.092c0.07695,0.062 0.13777,0.145 0.18174,0.247c0.0447,0.103 0.06669,0.206 0.06669,0.311c0,0.071 -0.00733,0.149 -0.02125,0.231c-0.01466,0.084 -0.03224,0.165 -0.0535,0.245c-0.02125,0.079 -0.04324,0.162 -0.06449,0.246l-1.26779,4.681c-0.04544,0.179 -0.09087,0.35 -0.13631,0.511c-0.04544,0.161 -0.09747,0.303 -0.15756,0.425c-0.05936,0.122 -0.1385,0.223 -0.23744,0.301c-0.09893,0.077 -0.21985,0.117 -0.36202,0.117c-0.1429,0 -0.26382,-0.039 -0.36275,-0.115a0.68446,0.934 0 0 1 -0.23963,-0.303c-0.06082,-0.125 -0.11359,-0.268 -0.15902,-0.428a12.03302,16.42 0 0 1 -0.13631,-0.508l-1.24654,-4.642c-0.02125,-0.084 -0.04397,-0.167 -0.06669,-0.249c-0.02198,-0.081 -0.04177,-0.169 -0.05643,-0.264c-0.01539,-0.094 -0.02345,-0.174 -0.02345,-0.239c0,-0.166 0.04837,-0.317 0.14657,-0.454c0.09747,-0.137 0.22058,-0.205 0.36788,-0.205c0.18101,0 0.30925,0.075 0.384,0.227c0.07475,0.152 0.15243,0.392 0.23084,0.724zm11.02391,0.284l-2.39415,0l0,1.766l2.20434,0c0.16195,0 0.2836,0.049 0.36348,0.148c0.07915,0.1 0.11945,0.23 0.11945,0.393s-0.03957,0.296 -0.11799,0.398c-0.07841,0.102 -0.20006,0.154 -0.36495,0.154l-2.20434,0l0,2.047l2.47622,0c0.16708,0 0.2924,0.052 0.37814,0.156c0.08428,0.105 0.12678,0.244 0.12678,0.418c0,0.168 -0.0425,0.305 -0.12678,0.409c-0.08501,0.104 -0.21105,0.157 -0.37814,0.157l-2.88807,0c-0.23157,0 -0.39866,-0.07 -0.50052,-0.211c-0.10186,-0.14 -0.15243,-0.365 -0.15243,-0.678l0,-5.38c0,-0.208 0.02272,-0.378 0.06815,-0.51s0.11652,-0.228 0.21325,-0.288c0.09673,-0.06 0.22058,-0.09 0.37154,-0.09l2.80599,0c0.16928,0 0.29533,0.051 0.37741,0.152c0.08281,0.102 0.12385,0.234 0.12385,0.399c0,0.168 -0.04104,0.303 -0.12385,0.404c-0.08208,0.105 -0.20812,0.156 -0.37741,0.156zm6.15135,2.984l-0.37154,0l0,2.303c0,0.303 -0.04837,0.525 -0.1473,0.669c-0.09747,0.144 -0.22571,0.216 -0.38327,0.216c-0.16928,0 -0.30046,-0.075 -0.39426,-0.225c-0.09307,-0.15 -0.13924,-0.37 -0.13924,-0.66l0,-5.508c0,-0.312 0.0513,-0.539 0.15389,-0.68c0.1026,-0.14 0.26821,-0.209 0.49759,-0.209l1.72727,0c0.23817,0 0.44263,0.014 0.61191,0.041c0.16855,0.027 0.32171,0.083 0.45802,0.166c0.16415,0.095 0.30999,0.23 0.43603,0.406c0.12678,0.176 0.22278,0.38 0.288,0.612c0.06595,0.233 0.09893,0.479 0.09893,0.74c0,0.534 -0.10992,0.96 -0.3305,1.279c-0.22058,0.319 -0.55548,0.546 -1.00324,0.679c0.18834,0.137 0.36788,0.339 0.53936,0.605c0.17148,0.268 0.32464,0.552 0.46022,0.854c0.13484,0.301 0.23963,0.573 0.31438,0.815c0.07621,0.243 0.11286,0.41 0.11286,0.501c0,0.095 -0.02198,0.188 -0.06595,0.281c-0.0447,0.093 -0.10479,0.166 -0.18101,0.22c-0.07621,0.054 -0.16415,0.081 -0.26382,0.081c-0.11945,0 -0.21985,-0.039 -0.30046,-0.115c-0.08134,-0.076 -0.15096,-0.174 -0.20886,-0.291c-0.05863,-0.117 -0.13777,-0.29 -0.23744,-0.519l-0.42577,-0.968c-0.15243,-0.355 -0.28947,-0.625 -0.40965,-0.812c-0.12018,-0.186 -0.24257,-0.312 -0.36641,-0.381c-0.12385,-0.069 -0.28141,-0.1 -0.46974,-0.1zm0.60825,-3.016l-0.97906,0l0,1.984l0.95048,0c0.25502,0 0.46974,-0.031 0.64342,-0.092s0.30705,-0.164 0.39866,-0.31c0.0916,-0.146 0.13777,-0.348 0.13777,-0.604c0,-0.2 -0.03737,-0.377 -0.11066,-0.529c-0.07328,-0.152 -0.17588,-0.267 -0.30705,-0.343c-0.12458,-0.07 -0.36861,-0.106 -0.73356,-0.106zm10.51753,3.933c0,0.433 -0.08134,0.822 -0.24476,1.167c-0.16342,0.345 -0.40232,0.615 -0.7167,0.811c-0.31512,0.195 -0.68739,0.293 -1.11903,0.293c-0.51664,0 -0.94315,-0.134 -1.27878,-0.4c-0.2389,-0.191 -0.4331,-0.448 -0.58186,-0.769c-0.1495,-0.321 -0.22425,-0.633 -0.22425,-0.936c0,-0.176 0.04544,-0.326 0.13411,-0.452c0.09014,-0.125 0.20373,-0.188 0.34223,-0.188c0.11212,0 0.20739,0.049 0.28507,0.146c0.07768,0.097 0.14363,0.243 0.1986,0.436c0.06669,0.228 0.1385,0.418 0.21618,0.571c0.07768,0.153 0.1876,0.279 0.32757,0.379c0.14144,0.1 0.32611,0.149 0.55548,0.149c0.31585,0 0.57087,-0.101 0.76874,-0.301c0.19713,-0.2 0.29533,-0.451 0.29533,-0.75c0,-0.238 -0.05276,-0.432 -0.15976,-0.58c-0.10626,-0.147 -0.2433,-0.261 -0.41185,-0.339c-0.16782,-0.078 -0.3928,-0.161 -0.67493,-0.249c-0.37741,-0.121 -0.69252,-0.262 -0.94681,-0.424c-0.25502,-0.16 -0.45655,-0.381 -0.60531,-0.659c-0.1495,-0.278 -0.22425,-0.625 -0.22425,-1.038c0,-0.395 0.07841,-0.745 0.23597,-1.051c0.15756,-0.307 0.38473,-0.542 0.68299,-0.707c0.29826,-0.164 0.64928,-0.246 1.05161,-0.246c0.32171,0 0.60019,0.055 0.83542,0.163c0.2345,0.109 0.43017,0.255 0.5848,0.435c0.15536,0.182 0.26821,0.371 0.34003,0.57c0.07182,0.198 0.10699,0.393 0.10699,0.581c0,0.173 -0.0447,0.328 -0.13411,0.467c-0.08867,0.139 -0.19933,0.208 -0.3327,0.208c-0.12092,0 -0.21252,-0.042 -0.27554,-0.125c-0.06302,-0.083 -0.13191,-0.219 -0.20446,-0.408c-0.096,-0.271 -0.21032,-0.481 -0.34443,-0.633c-0.13411,-0.152 -0.34883,-0.227 -0.64489,-0.227c-0.27481,0 -0.49612,0.082 -0.66394,0.246c-0.16855,0.165 -0.25283,0.363 -0.25283,0.594c0,0.144 0.02858,0.268 0.08574,0.372c0.05716,0.104 0.13631,0.193 0.2367,0.269c0.1004,0.075 0.20153,0.134 0.30412,0.176c0.1026,0.043 0.27188,0.104 0.50858,0.186c0.2946,0.095 0.56208,0.199 0.80098,0.313c0.2389,0.114 0.44263,0.252 0.61044,0.415c0.16782,0.163 0.29753,0.369 0.39206,0.618c0.09453,0.25 0.14144,0.556 0.14144,0.917zm4.24966,1.386l0,-5.643c0,-0.293 0.04837,-0.513 0.14657,-0.659c0.0982,-0.146 0.22498,-0.22 0.38107,-0.22c0.15976,0 0.28947,0.072 0.3884,0.217c0.09966,0.146 0.14876,0.365 0.14876,0.662l0,5.643c0,0.297 -0.0491,0.518 -0.14876,0.664c-0.09966,0.146 -0.22864,0.221 -0.3884,0.221c-0.15316,0 -0.27994,-0.074 -0.37887,-0.223c-0.09966,-0.149 -0.14876,-0.369 -0.14876,-0.662zm7.85224,-6.522c0.54302,0 1.0091,0.15 1.39823,0.451c0.38913,0.302 0.68446,0.73 0.88452,1.285c0.19933,0.556 0.29973,1.207 0.29973,1.957c0,0.553 -0.05496,1.057 -0.16489,1.51c-0.10919,0.452 -0.27334,0.845 -0.49246,1.177c-0.21985,0.332 -0.4888,0.587 -0.80831,0.763c-0.31951,0.175 -0.68519,0.264 -1.09631,0.264c-0.41038,0 -0.7768,-0.091 -1.09997,-0.271c-0.32391,-0.181 -0.59506,-0.436 -0.81124,-0.765c-0.21618,-0.329 -0.38034,-0.725 -0.49099,-1.187c-0.11066,-0.463 -0.16635,-0.963 -0.16635,-1.5c0,-0.551 0.05716,-1.056 0.17295,-1.515c0.11579,-0.46 0.28287,-0.851 0.50272,-1.173c0.21912,-0.322 0.48513,-0.569 0.80025,-0.74c0.31512,-0.171 0.672,-0.256 1.07213,-0.256zm1.50596,3.684c0,-0.527 -0.06156,-0.984 -0.18614,-1.37c-0.12311,-0.386 -0.29973,-0.679 -0.52983,-0.876c-0.22937,-0.198 -0.49393,-0.297 -0.79072,-0.297c-0.21179,0 -0.40745,0.055 -0.58773,0.164c-0.17881,0.109 -0.33417,0.27 -0.46388,0.479c-0.12971,0.209 -0.23157,0.477 -0.30705,0.803c-0.07548,0.326 -0.11212,0.691 -0.11212,1.098c0,0.408 0.03737,0.778 0.11212,1.109c0.07548,0.33 0.18101,0.604 0.31805,0.822c0.13704,0.217 0.29386,0.38 0.47121,0.488c0.17734,0.107 0.37228,0.162 0.58406,0.162c0.27115,0 0.52031,-0.094 0.74822,-0.28c0.22791,-0.186 0.40818,-0.475 0.54229,-0.864c0.13484,-0.389 0.20153,-0.87 0.20153,-1.438zm6.67385,-2.815l2.05045,4.225l0,-4.264c0,-0.276 0.04324,-0.484 0.13044,-0.623c0.08647,-0.139 0.20299,-0.207 0.35102,-0.207c0.15243,0 0.27188,0.068 0.36055,0.207c0.08721,0.139 0.13191,0.346 0.13191,0.623l0,5.633c0,0.629 -0.19053,0.943 -0.5716,0.943c-0.09527,0 -0.18101,-0.02 -0.25722,-0.057a0.65537,0.8943 0 0 1 -0.21472,-0.179a1.26552,1.7269 0 0 1 -0.18614,-0.286c-0.05716,-0.109 -0.11359,-0.221 -0.17075,-0.335l-1.99988,-4.175l0,4.199c0,0.274 -0.04617,0.481 -0.13924,0.621c-0.0938,0.141 -0.21252,0.211 -0.35835,0.211c-0.15023,0 -0.27115,-0.071 -0.36202,-0.213c-0.09087,-0.142 -0.13631,-0.348 -0.13631,-0.618l0,-5.525c0,-0.234 0.01832,-0.418 0.05716,-0.552c0.04544,-0.146 0.12018,-0.267 0.22644,-0.359c0.10479,-0.093 0.21838,-0.139 0.34076,-0.139c0.09527,0 0.17734,0.021 0.2455,0.063c0.06815,0.042 0.12751,0.099 0.17881,0.171c0.0513,0.072 0.10406,0.164 0.15829,0.278c0.05203,0.116 0.10699,0.235 0.16489,0.358z"/>
   <path stroke="#809cc9" id="svg_6" fill="none" d="m6.44797,94.582l79.33217,0"/>
  </g>
 </g>
</svg>