<?xml version="1.0" encoding="utf-8"?>
<svg xmlns="http://www.w3.org/2000/svg" viewBox="0 0 16 16">
  <style>.icon-canvas-transparent{opacity:0;fill:#f6f6f6}.icon-vs-out{fill:#f6f6f6}.icon-vs-bg{fill:#424242}.icon-vs-fg{fill:#f0eff1}.icon-vs-glass{fill:#0081e4}</style>
  <path class="icon-canvas-transparent" d="M16 0v16H0V0h16z" id="canvas"/>
  <path class="icon-vs-out" d="M16 6v10H4v-3H0V3h3V0h12v6h1z" id="outline"/>
  <path class="icon-vs-bg" d="M2 7h2v1H2v1h2v1H2v1h2v1H1V4h10v2H2v1zm11-3h-1v1h1v1h1V1H4v2h9v1zm2 3v8H5V7h10zm-7 6H6v1h2v-1zm0-2H6v1h2v-1zm0-2H6v1h2V9zm3 4H9v1h2v-1zm0-2H9v1h2v-1zm0-2H9v1h2V9zm3 4h-2v1h2v-1zm0-2h-2v1h2v-1zm0-2h-2v1h2V9z" id="iconBg"/>
  <g id="iconFg">
    <path class="icon-vs-fg" d="M2 6h2v1H2V6zm0 3h2V8H2v1zm4 5h2v-1H6v1zm7-9h-1v1h1V5zm0-2h-1v1h1V3zM2 11h2v-1H2v1zm4 1h2v-1H6v1zm3 2h2v-1H9v1zm-3-4h2V9H6v1zm6 4h2v-1h-2v1zm0-5v1h2V9h-2zm0 3h2v-1h-2v1zm-3 0h2v-1H9v1zm0-2h2V9H9v1z"/>
  </g>
  <path class="icon-canvas-transparent" d="M 9.517 17.128 L 0 17.128 L 0 8.181 L 9.517 8.181 L 9.517 17.128 Z" id="path-1" style="stroke-width: 1;"/>
  <path class="icon-vs-out" d="M 9.517 12.095 L 9.517 13.493 L 8.922 14.332 C 8.839 15.269 7.935 16.009 6.84 16.009 C 5.745 16.009 4.842 15.269 4.759 14.332 L 4.742 14.332 C 4.659 15.269 3.772 16.009 2.677 16.009 C 1.582 16.009 0.678 15.269 0.595 14.332 L 0 13.493 L 0 12.095 L 0.595 12.095 L 4.164 8.741 L 5.353 8.74 L 8.922 12.095 L 9.517 12.095 Z" id="path-2" style="stroke-width: 1;"/>
  <path class="icon-vs-glass" d="M 8.327 12.654 L 5.353 9.858 L 5.353 10.418 L 7.138 12.654 L 5.353 12.654 C 5.056 12.934 4.759 12.934 4.759 12.934 C 4.461 12.934 4.164 12.654 4.164 12.654 L 2.379 12.654 L 4.164 10.418 L 4.164 9.858 L 1.19 12.654 L 0.595 12.654 L 0.595 13.213 L 1.19 14.052 C 1.19 14.824 1.855 15.45 2.677 15.45 C 3.498 15.45 4.164 14.824 4.164 14.052 C 4.461 13.773 4.759 13.773 4.759 13.773 C 5.056 13.773 5.353 14.052 5.353 14.052 C 5.353 14.824 6.019 15.45 6.84 15.45 C 7.662 15.45 8.327 14.824 8.327 14.052 L 8.922 13.213 L 8.922 12.654 L 8.327 12.654 Z M 2.677 14.891 C 2.184 14.891 1.784 14.515 1.784 14.052 C 1.784 13.589 2.184 13.213 2.677 13.213 C 3.169 13.213 3.569 13.589 3.569 14.052 C 3.569 14.515 3.169 14.891 2.677 14.891 Z M 6.84 14.891 C 6.348 14.891 5.948 14.515 5.948 14.052 C 5.948 13.589 6.348 13.213 6.84 13.213 C 7.333 13.213 7.733 13.589 7.733 14.052 C 7.733 14.515 7.333 14.891 6.84 14.891 Z" id="path-3" style="stroke-width: 1;"/>
  <path class="icon-vs-fg" d="M 3.569 14.052 C 3.569 14.515 3.169 14.891 2.677 14.891 C 2.184 14.891 1.784 14.515 1.784 14.052 C 1.784 13.589 2.184 13.213 2.677 13.213 C 3.169 13.213 3.569 13.589 3.569 14.052 Z M 6.84 13.213 C 6.348 13.213 5.948 13.589 5.948 14.052 C 5.948 14.515 6.348 14.891 6.84 14.891 C 7.333 14.891 7.733 14.515 7.733 14.052 C 7.733 13.589 7.333 13.213 6.84 13.213 Z" id="path-4" style="stroke-width: 1;"/>
</svg>