<?xml version="1.0" encoding="utf-8"?>
<svg xmlns="http://www.w3.org/2000/svg" viewBox="0 0 16 16">
  <style>.icon-canvas-transparent{opacity:0;fill:#f6f6f6}.icon-vs-out{fill:#f6f6f6}.icon-vs-bg{fill:#424242}.icon-vs-fg{fill:#f0eff1}</style>
  <path class="icon-canvas-transparent" d="M16 16H0V0h16v16z" id="canvas"/>
  <path class="icon-vs-out" d="M1 15V1h15v14H1z" id="outline"/>
  <path class="icon-vs-fg" d="M3 11h3v2H3v-2zm0-1h3V8H3v2zm0-3h3V5H3v2zm4 6h3v-2H7v2zm0-3h3V8H7v2zm0-3h3V5H7v2zm4 6h3v-2h-3v2zm0-3h3V8h-3v2zm0-5v2h3V5h-3z" id="iconFg"/>
  <g id="iconBg">
    <path class="icon-vs-bg" d="M2 2v12h13V2H2zm4 11H3v-2h3v2zm0-3H3V8h3v2zm0-3H3V5h3v2zm4 6H7v-2h3v2zm0-3H7V8h3v2zm0-3H7V5h3v2zm4 6h-3v-2h3v2zm0-3h-3V8h3v2zm0-3h-3V5h3v2z"/>
  </g>
  <g id="group-1">
    <path class="st0" d="M0 0h16v16H0z" style="fill: rgb(246, 246, 246); opacity: 0;"/>
    <path class="st1" d="M15 8v2h1v3h-1v1h-1v2h-3v-2h-1v-1H9v-3h1V8h5z" style="fill: rgb(246, 246, 246);"/>
  </g>
  <path class="st2" d="M 11 9 L 12 9 L 12 10 L 11 10 L 11 9 Z M 13 9 L 14 9 L 14 10 L 13 10 L 13 9 Z M 10 11 L 10 12 L 11 12 L 11 13 L 12 13 L 12 15 L 13 15 L 13 13 L 14 13 L 14 12 L 15 12 L 15 11 L 10 11 Z" id="icon_x5F_bg" style="fill: rgb(51, 153, 51); stroke-width: 1;"/>
</svg>