<?xml version="1.0" encoding="utf-8"?>
<svg xmlns="http://www.w3.org/2000/svg" viewBox="0 0 16 16">
  <style>.icon-canvas-transparent{opacity:0;fill:#f6f6f6}.icon-vs-out{fill:#f6f6f6}.icon-vs-bg{fill:#424242}.icon-vs-fg{fill:#f0eff1}</style>
  <path class="icon-canvas-transparent" d="M16 16H0V0h16v16z" id="canvas"/>
  <path class="icon-vs-out" d="M1 15V1h15v14H1z" id="outline"/>
  <path class="icon-vs-fg" d="M3 11h3v2H3v-2zm0-1h3V8H3v2zm0-3h3V5H3v2zm4 6h3v-2H7v2zm0-3h3V8H7v2zm0-3h3V5H7v2zm4 6h3v-2h-3v2zm0-3h3V8h-3v2zm0-5v2h3V5h-3z" id="iconFg"/>
  <g id="iconBg">
    <path class="icon-vs-bg" d="M2 2v12h13V2H2zm4 11H3v-2h3v2zm0-3H3V8h3v2zm0-3H3V5h3v2zm4 6H7v-2h3v2zm0-3H7V8h3v2zm0-3H7V5h3v2zm4 6h-3v-2h3v2zm0-3h-3V8h3v2zm0-3h-3V5h3v2z"/>
  </g>
  <path class="icon-asx-blue" d="M 13.192 6.859 L 12.551 6.859 L 10.624 4.976 L 6.959 4.976 L 6.959 13.139 L 9.528 13.139 L 9.528 15.022 L 15.95 15.022 L 15.95 9.556 L 13.192 6.859 Z M 13.38 7.931 L 14.854 9.372 L 13.38 9.372 L 13.38 7.931 Z M 7.602 12.511 L 7.602 5.604 L 10.358 5.604 L 11.642 6.859 L 9.528 6.859 L 9.528 12.511 L 7.602 12.511 Z M 10.17 14.394 L 10.17 7.487 L 12.739 7.487 L 12.739 10 L 15.307 10 L 15.307 14.394 L 10.17 14.394 Z" style="fill: rgb(0, 129, 228); stroke-width: 1;"/>
</svg>