<?xml version="1.0" encoding="utf-8"?>
<svg version="1.1" xmlns="http://www.w3.org/2000/svg" x="0px" y="0px" viewBox="0 0 16 16" style="enable-background:new 0 0 16 16;">
  <style type="text/css">
	.icon_x002D_canvas_x002D_transparent{opacity:0;fill:#F6F6F6;}
	.icon_x002D_vs_x002D_out{fill:#F6F6F6;}
	.icon_x002D_vs_x002D_bg{fill:#424242;}
	.icon_x002D_vs_x002D_fg{fill:#F0EFF1;}
	.icon_x002D_vs_x002D_blue{fill:#1BA1E2;}
</style>
  <g id="canvas">
    <path class="icon_x002D_canvas_x002D_transparent" d="M16,16H0V0h16V16z"/>
  </g>
  <g id="outline">
    <path class="icon_x002D_vs_x002D_out" d="M16,3c0,1.654-1.346,3-3,3v7c0,1.654-1.346,3-3,3H3c-0.633,0-1.232-0.202-1.736-0.563 C0.489,14.986,0,14.303,0,13.5v-3c0-1.036,0.8-1.88,2-2.268V3c0-1.654,1.346-3,3-3h8C14.654,0,16,1.346,16,3z"/>
  </g>
  <g id="iconBg">
    <path class="icon_x002D_vs_x002D_bg" d="M13,1c-0.013,0-8,0-8,0C3.897,1,3,1.897,3,3v5.033C3.164,8.018,3.328,8,3.5,8 S3.836,8.018,4,8.033V3c0-0.551,0.449-1,1-1h6.278C11.106,2.295,11,2.634,11,3v6v4c0,0.552-0.449,1-1,1 c-0.267,0-0.518-0.104-0.707-0.293C9.104,13.518,9,13.267,9,13s0.104-0.518,0.293-0.707C9.482,12.104,9.733,12,10,12 c0.276,0,0.5-0.224,0.5-0.5S10.276,11,10,11H7v1h1.267C8.093,12.301,8,12.644,8,13c0,0.358,0.101,0.698,0.277,1H6.934 c-0.099,0.375-0.314,0.711-0.61,1H10c1.103,0,2-0.897,2-2V9V5h1c1.103,0,2-0.897,2-2S14.103,1,13,1z M13,4h-1V3 c0-0.551,0.449-1,1-1s1,0.449,1,1S13.551,4,13,4z"/>
  </g>
  <g id="iconFg">
    <path class="icon_x002D_vs_x002D_fg" d="M3.5,9.5c-1.145,0-2,0.527-2,1c0,0.473,0.855,1,2,1s2-0.527,2-1 C5.5,10.027,4.645,9.5,3.5,9.5z M8,13c0,0.358,0.101,0.698,0.277,1H6.934C6.976,13.839,7,13.672,7,13.5V12h1.267 C8.093,12.301,8,12.644,8,13z M14,3c0,0.551-0.449,1-1,1h-1V3c0-0.551,0.449-1,1-1S14,2.449,14,3z M5,2h6.278 C11.106,2.295,11,2.634,11,3v6v4c0,0.552-0.449,1-1,1c-0.267,0-0.518-0.104-0.707-0.293C9.104,13.518,9,13.267,9,13 s0.104-0.518,0.293-0.707C9.482,12.104,9.733,12,10,12c0.276,0,0.5-0.224,0.5-0.5S10.276,11,10,11H7v-0.5 c0-1.303-1.262-2.302-3-2.467V3C4,2.449,4.449,2,5,2z"/>
  </g>
  <g id="colorImportance">
    <path class="icon_x002D_vs_x002D_blue" d="M3.5,9C2.119,9,1,9.671,1,10.5v3C1,14.328,2.119,15,3.5,15S6,14.328,6,13.5v-3 C6,9.671,4.881,9,3.5,9z M3.5,11.5c-1.145,0-2-0.527-2-1c0-0.473,0.855-1,2-1s2,0.527,2,1C5.5,10.972,4.645,11.5,3.5,11.5z"/>
  </g>
  <path class="icon-canvas-transparent" d="M 8.765 8.726 L -1.647 8.726 L -1.647 -1.05 L 8.765 -1.05 L 8.765 8.726 Z" id="path-1" style="fill: rgb(246, 246, 246); opacity: 0; stroke-width: 1;"/>
  <path class="icon-vs-out" d="M 7.446 4.439 L 6.172 4.439 L 7.014 5.229 L 5.654 6.502 L 4.86 5.757 L 4.86 6.894 L 2.91 6.894 L 2.91 5.68 L 2.033 6.504 L 0.675 5.229 L 1.516 4.438 L 0.305 4.438 L 0.305 2.616 L 1.516 2.616 L 0.674 1.826 L 2.033 0.552 L 2.919 1.384 L 2.919 0.172 L 4.86 0.172 L 4.86 1.298 L 5.657 0.55 L 7.014 1.826 L 6.172 2.616 L 7.446 2.616 L 7.446 4.439 Z" id="path-2" style="fill: rgb(246, 246, 246); stroke-width: 1;"/>
  <g id="group-1" transform="matrix(0.650726, 0, 0, 0.611022, -1.646562, -1.050397)" style="">
    <path class="icon-vs-action-orange" d="M9 6.401h-.982V3H9v3.401zm0 2.197h-.998V12H9V8.598zM5.654 4.035l-.673.672 2.387 2.387.672-.673-2.386-2.386zm3.852 3.852l-.673.673 2.387 2.387.674-.672-2.388-2.388zM4 7v.982h3.401V7H4zm5.572 0l-.002.982h3.403V7H9.572zm-4.59 3.275l.672.672L8.041 8.56l-.673-.672-2.386 2.387zm3.852-3.854l.671.673 2.389-2.387-.672-.673-2.388 2.387z" style="fill: rgb(194, 125, 26);"/>
  </g>
  <path class="icon-canvas-transparent" d="M 16.026 5.523 L 16.026 16.013 L 6.782 16.013 L 6.782 5.523 L 16.026 5.523 Z" id="path-3" style="fill: rgb(246, 246, 246); opacity: 0; stroke-width: 1;"/>
  <path class="icon-vs-out" d="M 10.129 6.099 L 11.763 7.954 L 11.016 8.801 L 12.848 8.801 C 14.601 8.801 16.026 10.419 16.026 12.407 C 16.026 14.395 14.601 16.013 12.848 16.013 L 12.271 16.013 L 12.271 13.39 L 12.848 13.39 C 13.327 13.39 13.715 12.949 13.715 12.407 C 13.715 11.865 13.327 11.424 12.848 11.424 L 11.016 11.424 L 11.763 12.271 L 10.129 14.126 L 6.782 10.327 L 6.782 9.897 L 10.129 6.099 Z" id="path-4" style="fill: rgb(246, 246, 246); stroke-width: 1;"/>
  <path class="icon-vs-action-blue" d="M 10.129 7.027 L 10.946 7.954 L 9.621 9.456 L 12.848 9.456 C 14.282 9.456 15.449 10.78 15.449 12.407 C 15.449 14.033 14.282 15.357 12.848 15.357 L 12.848 14.045 C 13.644 14.045 14.293 13.311 14.293 12.407 C 14.293 11.503 13.644 10.768 12.848 10.768 L 9.621 10.768 L 10.946 12.271 L 10.129 13.198 L 7.409 10.112 L 10.129 7.027 Z" id="path-5" style="fill: rgb(0, 83, 156); stroke-width: 1;"/>
</svg>