<?xml version="1.0" encoding="utf-8"?>
<svg xmlns="http://www.w3.org/2000/svg" viewBox="0 0 16 16">
  <style>.icon-canvas-transparent{opacity:0;fill:#f6f6f6}.icon-vs-out{fill:#f6f6f6}.icon-vs-bg{fill:#424242}.icon-vs-fg{fill:#f0eff1}</style>
  <path class="icon-canvas-transparent" d="M16 16H0V0h16v16z" id="canvas"/>
  <path class="icon-vs-out" d="M1 15V1h15v14H1z" id="outline"/>
  <path class="icon-vs-fg" d="M3 11h3v2H3v-2zm0-1h3V8H3v2zm0-3h3V5H3v2zm4 6h3v-2H7v2zm0-3h3V8H7v2zm0-3h3V5H7v2zm4 6h3v-2h-3v2zm0-3h3V8h-3v2zm0-5v2h3V5h-3z" id="iconFg"/>
  <g id="iconBg">
    <path class="icon-vs-bg" d="M2 2v12h13V2H2zm4 11H3v-2h3v2zm0-3H3V8h3v2zm0-3H3V5h3v2zm4 6H7v-2h3v2zm0-3H7V8h3v2zm0-3H7V5h3v2zm4 6h-3v-2h3v2zm0-3h-3V8h3v2zm0-3h-3V5h3v2z"/>
  </g>
  <path class="icon-canvas-transparent" d="M 12.987 14.02 L -3.013 14.02 L -3.013 -1.98 L 12.987 -1.98 L 12.987 14.02 Z" id="path-1" style="stroke-width: 1;"/>
  <path class="icon-vs-out" d="M 10.961 7.003 L 9.003 7.003 L 10.297 8.296 L 8.207 10.38 L 6.987 9.161 L 6.987 11.02 L 3.989 11.02 L 3.989 9.033 L 2.641 10.382 L 0.555 8.296 L 1.847 7.002 L -0.013 7.002 L -0.013 4.02 L 1.847 4.02 L 0.553 2.727 L 2.641 0.641 L 4.004 2.005 L 4.004 0.02 L 6.987 0.02 L 6.987 1.863 L 8.211 0.64 L 10.296 2.728 L 9.003 4.02 L 10.961 4.02 L 10.961 7.003 Z" id="path-2" style="stroke-width: 1;"/>
  <g id="group-1" transform="matrix(1, 0, 0, 1, -3.013169, -1.980685)">
    <path class="icon-vs-action-orange" d="M9 6.401h-.982V3H9v3.401zm0 2.197h-.998V12H9V8.598zM5.654 4.035l-.673.672 2.387 2.387.672-.673-2.386-2.386zm3.852 3.852l-.673.673 2.387 2.387.674-.672-2.388-2.388zM4 7v.982h3.401V7H4zm5.572 0l-.002.982h3.403V7H9.572zm-4.59 3.275l.672.672L8.041 8.56l-.673-.672-2.386 2.387zm3.852-3.854l.671.673 2.389-2.387-.672-.673-2.388 2.387z" style="fill: rgb(194, 125, 26);"/>
  </g>
</svg>