<?xml version="1.0" encoding="utf-8"?>
<svg version="1.1" xmlns="http://www.w3.org/2000/svg" x="0px" y="0px" width="16px" height="16px" viewBox="0 0 16 16" style="enable-background:new 0 0 16 16;">
  <style type="text/css">
	.icon-canvas-transparent{opacity:0;fill:#F6F6F6;}
	.icon-vs-out{fill:#F6F6F6;}
	.icon-vs-bg{fill:#424242;}
	.icon-vs-fg{fill:#F0EFF1;}
	.icon-vs-action-green{fill:#388A34;}
</style>
  <g id="canvas">
    <path class="icon-canvas-transparent" d="M16,16H0V0h16V16z"/>
  </g>
  <g id="outline">
    <path class="icon-vs-out" d="M15,1v15H6V8H2.018V6H0V2.018h2.018V0H6v1H15z"/>
  </g>
  <g id="iconBg">
    <path class="icon-vs-bg" d="M14,2v13H7V6h1h5V3H8l0-1H14z M13,11H8v3h5V11z"/>
  </g>
  <g id="iconFg">
    <path class="icon-vs-fg" d="M 8 11 L 11.981 11 L 13 11.008 L 13 14 L 8 14 L 8 11 Z M 13 11 L 13 11.008 L 11.981 11 L 13 11 Z"/>
    <path class="icon-vs-fg" d="M 8 3 L 8 6 L 13 6 L 13 3 L 8 3 Z"/>
  </g>
  <g id="colorAction">
    <path class="icon-vs-action-green" d="M7,5H5v2H3V5H1V3h2V1h2v2h2V5z"/>
  </g>
  <rect x="7.961" y="6.625" width="5.07" height="3.877" style="stroke: rgb(0, 0, 0); stroke-width: 0px; fill: rgb(240, 239, 241);"/>
  <rect x="7.935" y="6.599" width="5.122" height="3.981" style="stroke: rgb(0, 0, 0); fill: rgb(66, 66, 66); fill-rule: nonzero; paint-order: fill; stroke-width: 0px;"/>
</svg>