<?xml version="1.0" encoding="utf-8"?>
<svg xmlns="http://www.w3.org/2000/svg" viewBox="0 0 16 16">
  <style>.icon-canvas-transparent{opacity:0;fill:#f6f6f6}.icon-vs-out{fill:#f6f6f6}.icon-vs-bg{fill:#424242}.icon-vs-fg{fill:#f0eff1}.icon-vs-action-blue{fill:#00539c}</style>
  <path class="icon-canvas-transparent" d="M16 16H0V0h16v16z" id="canvas"/>
  <path class="icon-vs-out" d="M11.621 0H3v1.025l-3 3v.66l1.791 1.791L3 5.267V16h13V4.379z" id="outline"/>
  <path class="icon-vs-bg" d="M11.207 1H5.85l1 1H10v4h4v8H5V9H4v6h11V4.793L11.207 1zM11 5V2.207L13.793 5H11z" id="iconBg"/>
  <g id="iconFg">
    <path class="icon-vs-fg" d="M11 2.207V5h2.793z"/>
    <path class="icon-vs-fg" d="M10 6V2H6.85l2.355 2.355-2.121 2.121L6 5.392V9H5v5h9V6z"/>
    <path class="icon-vs-fg" d="M11 2.207V5h2.793z"/>
    <path class="icon-vs-fg" d="M10 6V2H6.85l2.355 2.355-2.121 2.121L6 5.392V9H5v5h9V6z"/>
  </g>
  <path class="icon-vs-action-blue" d="M1.084 4.355l.707.707L4 2.853V8h1V2.978l2.084 2.084.707-.707-3.353-3.354z" id="colorAction"/>
  <path class="icon-canvas-transparent" d="M 8.021 9.018 L 16.028 9.018 L 16.028 16.042 L 8.021 16.042 L 8.021 9.018 Z" id="path-1" style="stroke-width: 1;"/>
  <path class="icon-vs-out" d="M 13.889 9.288 C 13.379 9.114 12.717 9.018 12.025 9.018 C 11.332 9.018 10.67 9.114 10.16 9.288 C 9.17 9.626 9.022 10.158 9.022 10.444 L 9.022 14.616 C 9.022 14.903 9.17 15.435 10.16 15.772 C 10.67 15.946 11.332 16.042 12.025 16.042 C 12.717 16.042 13.379 15.946 13.889 15.772 C 14.879 15.435 15.028 14.903 15.028 14.616 L 15.028 10.444 C 15.028 10.158 14.879 9.626 13.889 9.288 Z" id="path-2" style="stroke-width: 1;"/>
  <path class="icon-vs-fg" d="M 12.025 10.994 C 13.32 10.994 14.026 10.632 14.026 10.444 C 14.026 10.259 13.32 9.896 12.025 9.896 C 10.729 9.896 10.022 10.259 10.022 10.444 C 10.022 10.632 10.729 10.994 12.025 10.994 Z" id="path-3" style="stroke-width: 1;"/>
  <g id="group-1" transform="matrix(0.500438, 0, 0, 0.438976, 8.020742, 9.018792)" style="">
    <path class="icon-vs-blue" d="M13 12.75v-9.5c0-.688-.581-1.293-1.637-1.703C10.457 1.194 9.263 1 8 1s-2.457.194-3.363.547C3.581 1.957 3 2.562 3 3.25v9.5c0 .688.581 1.293 1.637 1.703.906.353 2.1.547 3.363.547s2.457-.194 3.363-.547C12.419 14.043 13 13.438 13 12.75zM8 2c2.588 0 4 .826 4 1.25S10.588 4.5 8 4.5s-4-.826-4-1.25S5.412 2 8 2z" style="fill: rgb(27, 161, 226);"/>
  </g>
</svg>