<?xml version="1.0" encoding="utf-8"?>
<svg width="16" height="16" viewBox="0 0 16 16" xmlns="http://www.w3.org/2000/svg">
  <rect width="16" height="16" rx="3" fill="#217346"/>
  <rect x="3" y="3" width="10" height="10" rx="1" fill="#ffffff"/>
  <rect x="6" y="4" width="0.6" height="8" fill="#217346"/>
  <rect x="9" y="4" width="0.6" height="8" fill="#217346"/>
  <rect x="4" y="6" width="8" height="0.6" fill="#217346"/>
  <rect x="4" y="9" width="8" height="0.6" fill="#217346"/>
  <path class="icon-canvas-transparent" d="M 16.007 16 L 5.766 16 L 5.766 5.928 L 16.007 5.928 L 16.007 16 Z" id="canvas" style="fill: rgb(246, 246, 246); opacity: 0; stroke-width: 1;"/>
  <path class="icon-vs-out" d="M 16.007 8.031 C 16.007 8.556 15.909 8.936 15.392 9.444 L 9.559 15.263 L 6.483 16 L 6.391 16 C 6.046 16 5.766 15.725 5.766 15.386 L 5.766 15.292 L 6.549 12.268 L 12.351 6.544 C 12.751 6.148 13.297 5.926 13.865 5.928 C 14.437 5.928 14.974 6.146 15.378 6.543 C 15.783 6.94 16.007 7.469 16.007 8.031 Z" id="outline" style="fill: rgb(246, 246, 246); stroke-width: 1;"/>
  <path class="icon-vs-fg" d="M 12.549 8.149 L 13.745 9.324 L 9.294 13.696 C 9.078 13.158 8.646 12.733 8.1 12.519 L 12.549 8.149 Z M 14.463 7.444 C 14.133 7.12 13.599 7.12 13.268 7.444 L 13.013 7.694 L 14.209 8.868 L 14.464 8.618 L 14.465 8.619 L 14.464 8.618 C 14.624 8.461 14.712 8.253 14.712 8.031 C 14.712 7.81 14.623 7.599 14.463 7.444 Z M 7.659 13.055 L 7.295 14.485 L 8.748 14.128 C 8.619 13.598 8.199 13.183 7.659 13.055 Z" id="iconFg" style="fill: rgb(240, 239, 241); stroke-width: 1;"/>
  <path class="icon-vs-action-blue" d="M 12.804 6.989 L 7.125 12.59 L 6.406 15.37 L 9.231 14.694 L 14.94 8.999 C 15.333 8.612 15.367 8.391 15.367 8.031 C 15.367 7.637 15.21 7.267 14.927 6.989 C 14.34 6.413 13.391 6.413 12.804 6.989 Z M 7.295 14.485 L 7.659 13.055 C 8.199 13.182 8.62 13.597 8.748 14.128 L 7.295 14.485 Z M 9.295 13.697 C 9.078 13.159 8.647 12.734 8.101 12.519 L 12.549 8.149 L 13.745 9.324 L 9.295 13.697 Z M 14.465 8.619 L 14.463 8.618 L 14.209 8.868 L 13.012 7.694 L 13.267 7.444 C 13.598 7.12 14.133 7.12 14.463 7.444 C 14.623 7.601 14.71 7.809 14.71 8.031 C 14.71 8.253 14.623 8.461 14.463 8.618 L 14.465 8.619 Z" id="iconBg" style="fill: #217346; stroke-width: 1;"/>
</svg>