<?xml version="1.0" encoding="utf-8"?>
<svg xmlns="http://www.w3.org/2000/svg" viewBox="0 0 16 16">
  <style>.st0{opacity:0;fill:#f0eff1}.st1{fill:#f6f6f6}.st2{fill:#424242}.st3{fill:#f0eff1}</style>
  <g id="outline">
    <path class="st0" d="M0 0h16v16H0z"/>
    <path class="st1" d="M1.937 15V0h13v15h-13z"/>
  </g>
  <g id="icon_x5F_bg">
    <path class="st2" d="M5.989 4H11v.978H5.989zM5.989 7H11v.978H5.989zM5.989 10.022H11V11H5.989z"/>
    <path class="st2" d="M3 1v13h11V1H3zm10 12H4V2h9v11z"/>
  </g>
  <path class="st3" d="M4 2v11h9V2H4zm6.979 9H6.016v-.978h4.963V11zM11 7.978H5.995V7H11v.978zm-.042-3H6.016V4h4.942v.978z" id="icon_x5F_fg"/>
  <path class="icon-canvas-transparent" d="M 5.317 4.979 L 15.988 4.979 L 15.988 16.013 L 5.317 16.013 L 5.317 4.979 Z" id="canvas" style="fill: rgb(246, 246, 246); opacity: 0; stroke-width: 1;"/>
  <path class="icon-vs-out" d="M 12.653 4.979 C 10.752 4.979 9.318 5.869 9.318 7.049 L 9.318 7.777 C 9.097 7.752 8.874 7.739 8.652 7.738 C 6.75 7.738 5.317 8.627 5.317 9.807 L 5.317 13.945 C 5.317 15.124 6.75 16.013 8.652 16.013 C 10.553 16.013 11.987 15.124 11.987 13.945 L 11.987 13.215 C 12.2 13.241 12.423 13.255 12.653 13.255 C 14.554 13.255 15.988 12.365 15.988 11.186 L 15.988 7.049 C 15.988 5.869 14.554 4.979 12.653 4.979 Z" id="path-1" style="fill: rgb(246, 246, 246); stroke-width: 1;"/>
  <path class="icon-vs-blue_x0020_" d="M 12.653 5.67 C 11.18 5.67 9.986 6.287 9.986 7.049 L 9.986 7.898 C 11.184 8.206 11.987 8.924 11.987 9.807 L 11.987 12.516 C 12.2 12.545 12.422 12.566 12.653 12.566 C 14.126 12.566 15.321 11.947 15.321 11.186 L 15.321 7.049 C 15.321 6.287 14.126 5.67 12.653 5.67 Z M 12.653 7.962 C 11.321 7.962 10.436 7.411 10.436 7.049 C 10.436 6.685 11.321 6.134 12.653 6.134 C 13.987 6.134 14.87 6.685 14.87 7.049 C 14.87 7.411 13.987 7.962 12.653 7.962 Z M 8.652 8.428 C 7.178 8.428 5.984 9.045 5.984 9.807 L 5.984 13.945 C 5.984 14.705 7.178 15.324 8.652 15.324 C 10.125 15.324 11.319 14.705 11.319 13.945 L 11.319 9.807 C 11.319 9.045 10.125 8.428 8.652 8.428 Z M 8.652 10.721 C 7.318 10.721 6.434 10.17 6.434 9.807 C 6.434 9.444 7.318 8.892 8.652 8.892 C 9.984 8.892 10.869 9.444 10.869 9.807 C 10.869 10.17 9.984 10.721 8.652 10.721 Z" id="iconBg" style="fill: rgb(27, 161, 226); stroke-width: 1;"/>
  <g id="iconFg" transform="matrix(0.666935, 0, 0, 0.689633, 5.315902, 4.9787)" style="">
    <path class="icon-vs-fg" d="M14.325 3c0 .527-1.326 1.325-3.325 1.325S7.675 3.527 7.675 3 9.001 1.675 11 1.675s3.325.798 3.325 1.325zM5 5.675c-1.999 0-3.325.798-3.325 1.325S3.001 8.325 5 8.325 8.325 7.527 8.325 7 6.999 5.675 5 5.675z" style="fill: rgb(240, 239, 241);"/>
  </g>
</svg>